<?xml version="1.0" encoding="UTF-8"?>
<svg xmlns="http://www.w3.org/2000/svg" width="640" height="476" viewBox="0 0 640 476" role="img">
<rect width="640" height="476" rx="12" fill="#ffffff"/>
<title>Most common functional labels</title>
<text x="24" y="34" fill="#24292f" font-family="sans-serif" font-size="20" font-weight="600">Most common functional labels</text>
<text x="138" y="83" text-anchor="end" fill="#24292f" font-family="sans-serif" font-size="14">install</text>
<rect x="150" y="68" width="436" height="20" rx="4" fill="#f0f3f6"/>
<rect x="150" y="68" width="436.0" height="20" rx="4" fill="#0969da"/>
<text x="594.0" y="83" fill="#57606a" font-family="sans-serif" font-size="13" font-weight="600">19</text>
<text x="138" y="121" text-anchor="end" fill="#24292f" font-family="sans-serif" font-size="14">GUI</text>
<rect x="150" y="106" width="436" height="20" rx="4" fill="#f0f3f6"/>
<rect x="150" y="106" width="413.1" height="20" rx="4" fill="#1f883d"/>
<text x="571.1" y="121" fill="#57606a" font-family="sans-serif" font-size="13" font-weight="600">18</text>
<text x="138" y="159" text-anchor="end" fill="#24292f" font-family="sans-serif" font-size="14">settings</text>
<rect x="150" y="144" width="436" height="20" rx="4" fill="#f0f3f6"/>
<rect x="150" y="144" width="367.2" height="20" rx="4" fill="#bf8700"/>
<text x="525.2" y="159" fill="#57606a" font-family="sans-serif" font-size="13" font-weight="600">16</text>
<text x="138" y="197" text-anchor="end" fill="#24292f" font-family="sans-serif" font-size="14">internal</text>
<rect x="150" y="182" width="436" height="20" rx="4" fill="#f0f3f6"/>
<rect x="150" y="182" width="298.3" height="20" rx="4" fill="#8250df"/>
<text x="456.3" y="197" fill="#57606a" font-family="sans-serif" font-size="13" font-weight="600">13</text>
<text x="138" y="235" text-anchor="end" fill="#24292f" font-family="sans-serif" font-size="14">commandlet</text>
<rect x="150" y="220" width="436" height="20" rx="4" fill="#f0f3f6"/>
<rect x="150" y="220" width="229.5" height="20" rx="4" fill="#cf222e"/>
<text x="387.5" y="235" fill="#57606a" font-family="sans-serif" font-size="13" font-weight="600">10</text>
<text x="138" y="273" text-anchor="end" fill="#24292f" font-family="sans-serif" font-size="14">urls</text>
<rect x="150" y="258" width="436" height="20" rx="4" fill="#f0f3f6"/>
<rect x="150" y="258" width="206.5" height="20" rx="4" fill="#0969da"/>
<text x="364.5" y="273" fill="#57606a" font-family="sans-serif" font-size="13" font-weight="600">9</text>
<text x="138" y="311" text-anchor="end" fill="#24292f" font-family="sans-serif" font-size="14">update</text>
<rect x="150" y="296" width="436" height="20" rx="4" fill="#f0f3f6"/>
<rect x="150" y="296" width="160.6" height="20" rx="4" fill="#1f883d"/>
<text x="318.6" y="311" fill="#57606a" font-family="sans-serif" font-size="13" font-weight="600">7</text>
<text x="138" y="349" text-anchor="end" fill="#24292f" font-family="sans-serif" font-size="14">vscode</text>
<rect x="150" y="334" width="436" height="20" rx="4" fill="#f0f3f6"/>
<rect x="150" y="334" width="160.6" height="20" rx="4" fill="#bf8700"/>
<text x="318.6" y="349" fill="#57606a" font-family="sans-serif" font-size="13" font-weight="600">7</text>
<text x="138" y="387" text-anchor="end" fill="#24292f" font-family="sans-serif" font-size="14">configuration</text>
<rect x="150" y="372" width="436" height="20" rx="4" fill="#f0f3f6"/>
<rect x="150" y="372" width="137.7" height="20" rx="4" fill="#8250df"/>
<text x="295.7" y="387" fill="#57606a" font-family="sans-serif" font-size="13" font-weight="600">6</text>
<text x="138" y="425" text-anchor="end" fill="#24292f" font-family="sans-serif" font-size="14">docker</text>
<rect x="150" y="410" width="436" height="20" rx="4" fill="#f0f3f6"/>
<rect x="150" y="410" width="137.7" height="20" rx="4" fill="#cf222e"/>
<text x="295.7" y="425" fill="#57606a" font-family="sans-serif" font-size="13" font-weight="600">6</text>
</svg>
