<?xml version="1.0" encoding="UTF-8"?>
<svg xmlns="http://www.w3.org/2000/svg" width="640" height="400" viewBox="0 0 640 400" role="img">
<style>
  :root {
    color-scheme: light dark;
    --chart-background: #ffffff;
    --chart-text: #24292f;
    --chart-muted-text: #57606a;
    --chart-bar-track: #f0f3f6;
  }
  @media (prefers-color-scheme: dark) {
    :root {
      --chart-background: #0d1117;
      --chart-text: #f0f6fc;
      --chart-muted-text: #8b949e;
      --chart-bar-track: #30363d;
    }
  }
</style>
<rect width="640" height="400" rx="12" fill="var(--chart-background)"/>
<title>Open issue metrics</title>
<text x="24" y="34" fill="var(--chart-text)" font-family="sans-serif" font-size="20" font-weight="600">Open issue metrics</text>
<text x="138" y="83" text-anchor="end" fill="var(--chart-text)" font-family="sans-serif" font-size="14">Open Issues</text>
<rect x="150" y="68" width="436" height="20" rx="4" fill="var(--chart-bar-track)"/>
<rect x="150" y="68" width="436.0" height="20" rx="4" fill="#0969da"/>
<text x="594.0" y="83" fill="var(--chart-muted-text)" font-family="sans-serif" font-size="13" font-weight="600">169</text>
<text x="138" y="121" text-anchor="end" fill="var(--chart-text)" font-family="sans-serif" font-size="14">Assigned</text>
<rect x="150" y="106" width="436" height="20" rx="4" fill="var(--chart-bar-track)"/>
<rect x="150" y="106" width="185.8" height="20" rx="4" fill="#1f883d"/>
<text x="343.8" y="121" fill="var(--chart-muted-text)" font-family="sans-serif" font-size="13" font-weight="600">72</text>
<text x="138" y="159" text-anchor="end" fill="var(--chart-text)" font-family="sans-serif" font-size="14">Unassigned</text>
<rect x="150" y="144" width="436" height="20" rx="4" fill="var(--chart-bar-track)"/>
<rect x="150" y="144" width="250.2" height="20" rx="4" fill="#bf8700"/>
<text x="408.2" y="159" fill="var(--chart-muted-text)" font-family="sans-serif" font-size="13" font-weight="600">97</text>
<text x="138" y="197" text-anchor="end" fill="var(--chart-text)" font-family="sans-serif" font-size="14">Blockers</text>
<rect x="150" y="182" width="436" height="20" rx="4" fill="var(--chart-bar-track)"/>
<rect x="150" y="182" width="0.0" height="20" rx="4" fill="#8250df"/>
<text x="158.0" y="197" fill="var(--chart-muted-text)" font-family="sans-serif" font-size="13" font-weight="600">0</text>
<text x="138" y="235" text-anchor="end" fill="var(--chart-text)" font-family="sans-serif" font-size="14">Bugs</text>
<rect x="150" y="220" width="436" height="20" rx="4" fill="var(--chart-bar-track)"/>
<rect x="150" y="220" width="134.2" height="20" rx="4" fill="#cf222e"/>
<text x="292.2" y="235" fill="var(--chart-muted-text)" font-family="sans-serif" font-size="13" font-weight="600">52</text>
<text x="138" y="273" text-anchor="end" fill="var(--chart-text)" font-family="sans-serif" font-size="14">Tasks</text>
<rect x="150" y="258" width="436" height="20" rx="4" fill="var(--chart-bar-track)"/>
<rect x="150" y="258" width="77.4" height="20" rx="4" fill="#0969da"/>
<text x="235.4" y="273" fill="var(--chart-muted-text)" font-family="sans-serif" font-size="13" font-weight="600">30</text>
<text x="138" y="311" text-anchor="end" fill="var(--chart-text)" font-family="sans-serif" font-size="14">Features</text>
<rect x="150" y="296" width="436" height="20" rx="4" fill="var(--chart-bar-track)"/>
<rect x="150" y="296" width="224.4" height="20" rx="4" fill="#1f883d"/>
<text x="382.4" y="311" fill="var(--chart-muted-text)" font-family="sans-serif" font-size="13" font-weight="600">87</text>
<text x="138" y="349" text-anchor="end" fill="var(--chart-text)" font-family="sans-serif" font-size="14">No Type</text>
<rect x="150" y="334" width="436" height="20" rx="4" fill="var(--chart-bar-track)"/>
<rect x="150" y="334" width="0.0" height="20" rx="4" fill="#bf8700"/>
<text x="158.0" y="349" fill="var(--chart-muted-text)" font-family="sans-serif" font-size="13" font-weight="600">0</text>
</svg>
