<?xml version="1.0" encoding="UTF-8"?>
<svg xmlns="http://www.w3.org/2000/svg" width="640" height="300" viewBox="0 0 640 300" role="img">
<rect width="640" height="300" rx="12" fill="#ffffff"/>
<title>Issue age</title>
<text x="24" y="34" fill="#24292f" font-family="sans-serif" font-size="20" font-weight="600">Issue age</text>
<path d="M 170.0 164.0 L 170.0 64.0 A 100.0 100.0 0 0 1 191.3 66.3 Z" fill="#0969da"/>
<rect x="330" y="66" width="14" height="14" rx="2" fill="#0969da"/>
<text x="354" y="78" fill="#24292f" font-family="sans-serif" font-size="13">0-10 days: 6 (3.4%)</text>
<path d="M 170.0 164.0 L 191.3 66.3 A 100.0 100.0 0 0 1 252.1 107.0 Z" fill="#1f883d"/>
<rect x="330" y="96" width="14" height="14" rx="2" fill="#1f883d"/>
<text x="354" y="108" fill="#24292f" font-family="sans-serif" font-size="13">11-30 days: 21 (11.9%)</text>
<path d="M 170.0 164.0 L 252.1 107.0 A 100.0 100.0 0 0 1 269.9 160.4 Z" fill="#bf8700"/>
<rect x="330" y="126" width="14" height="14" rx="2" fill="#bf8700"/>
<text x="354" y="138" fill="#24292f" font-family="sans-serif" font-size="13">31-60 days: 16 (9.1%)</text>
<path d="M 170.0 164.0 L 269.9 160.4 A 100.0 100.0 0 0 1 268.4 181.8 Z" fill="#8250df"/>
<rect x="330" y="156" width="14" height="14" rx="2" fill="#8250df"/>
<text x="354" y="168" fill="#24292f" font-family="sans-serif" font-size="13">61-90 days: 6 (3.4%)</text>
<path d="M 170.0 164.0 L 268.4 181.8 A 100.0 100.0 0 1 1 170.0 64.0 Z" fill="#cf222e"/>
<rect x="330" y="186" width="14" height="14" rx="2" fill="#cf222e"/>
<text x="354" y="198" fill="#24292f" font-family="sans-serif" font-size="13">90+ days: 127 (72.2%)</text>
<circle cx="170.0" cy="164.0" r="50" fill="#ffffff"/>
<text x="170.0" y="162.0" text-anchor="middle" fill="#24292f" font-family="sans-serif" font-size="24" font-weight="600">176</text>
<text x="170.0" y="184.0" text-anchor="middle" fill="#57606a" font-family="sans-serif" font-size="12">total</text>
</svg>
