<?xml version="1.0" encoding="UTF-8"?>
<svg xmlns="http://www.w3.org/2000/svg" width="640" height="280" viewBox="0 0 640 280" role="img">
<rect width="640" height="280" rx="12" fill="#ffffff"/>
<title>Issues by operating system</title>
<text x="24" y="34" fill="#24292f" font-family="sans-serif" font-size="20" font-weight="600">Issues by operating system</text>
<rect x="24" y="48" width="12" height="12" rx="2" fill="#0969da"/>
<text x="42" y="59" fill="#57606a" font-family="sans-serif" font-size="12">Specific</text>
<rect x="136" y="48" width="12" height="12" rx="2" fill="#8250df"/>
<text x="154" y="59" fill="#57606a" font-family="sans-serif" font-size="12">Multi-OS</text>
<rect x="248" y="48" width="12" height="12" rx="2" fill="#8c959f"/>
<text x="266" y="59" fill="#57606a" font-family="sans-serif" font-size="12">Cross-platform</text>
<text x="98" y="99" text-anchor="end" fill="#24292f" font-family="sans-serif" font-size="14">Windows</text>
<rect x="110.0" y="82" width="46.8" height="24" fill="#0969da"/>
<rect x="156.8" y="82" width="443.2" height="24" fill="#8c959f"/>
<text x="608.0" y="99" fill="#57606a" font-family="sans-serif" font-size="13" font-weight="600">157</text>
<text x="98" y="147" text-anchor="end" fill="#24292f" font-family="sans-serif" font-size="14">Linux</text>
<rect x="110.0" y="130" width="18.7" height="24" fill="#0969da"/>
<rect x="128.7" y="130" width="3.1" height="24" fill="#8250df"/>
<rect x="131.8" y="130" width="443.2" height="24" fill="#8c959f"/>
<text x="583.0" y="147" fill="#57606a" font-family="sans-serif" font-size="13" font-weight="600">149</text>
<text x="98" y="195" text-anchor="end" fill="#24292f" font-family="sans-serif" font-size="14">macOS</text>
<rect x="110.0" y="178" width="37.5" height="24" fill="#0969da"/>
<rect x="147.5" y="178" width="3.1" height="24" fill="#8250df"/>
<rect x="150.6" y="178" width="443.2" height="24" fill="#8c959f"/>
<text x="601.8" y="195" fill="#57606a" font-family="sans-serif" font-size="13" font-weight="600">155</text>
</svg>
